<?xml version="1.0" encoding="utf-8"?>
<!-- Generator: Adobe Illustrator 19.0.0, SVG Export Plug-In . SVG Version: 6.00 Build 0)  -->
<svg version="1.1" id="Ebene_1" xmlns="http://www.w3.org/2000/svg" xmlns:xlink="http://www.w3.org/1999/xlink" x="0px" y="0px"
	 viewBox="0 0 430 128" enable-background="new 0 0 430 128" xml:space="preserve">
<g id="XMLID_2_">
	<path id="XMLID_7_" fill="#432713" d="M324.2,76.3c0,5.1-1.6,9.3-4.9,12.7c-3.2,3.4-7.1,5-11.5,5c-2.5,0-4.5-0.8-6-2.5
		c-1.5-1.6-2.3-3.9-2.3-6.8c0-4.1,1.5-7.3,4.4-9.6c4-3,10.7-5.1,20.3-6.4V76.3z M338.1,92.9c-1.3,0-2.4-0.6-3.2-1.9
		c-0.8-1.2-1.2-3.1-1.2-5.6V56.5c0-3.9-1.7-7.2-5-10c-3.3-2.7-8.1-4.1-14.4-4.1c-6.8,0-12.3,1.5-16.5,4.6c-4.2,3.1-6.3,6.5-6.3,10.2
		c0,2,0.6,3.6,1.9,4.9c1.3,1.3,2.8,1.9,4.7,1.9c1.8,0,3.2-0.5,4.3-1.6c1.1-1.1,1.6-2.5,1.6-4.1c0-1.2-0.5-2.5-1.6-4
		c-0.9-1.2-1.3-2.1-1.3-2.7c0-1,0.8-2,2.5-3c2.4-1.4,5.2-2,8.4-2c3.5,0,6.4,1,8.7,3c2.3,2,3.4,4.5,3.4,7.3v8
		c-10.7,1.2-19.3,3.6-25.7,7.2c-6.4,3.6-9.7,8.2-9.7,13.7c0,3.6,1.4,6.6,4.2,9c2.8,2.3,6.9,3.5,12.3,3.5c3.8,0,7-0.6,9.7-1.9
		c2.7-1.3,5.8-3.8,9.4-7.5c1.3,3.5,2.8,5.9,4.6,7.3c1.7,1.4,3.9,2.1,6.4,2.1c3.3,0,6.3-1.3,9-4.1l-1.9-3.2
		C341.1,92.3,339.5,92.9,338.1,92.9"/>
	<path id="XMLID_6_" fill="#432713" d="M281.3,91.3c-0.8-0.6-1.2-1.6-1.2-3.2V61.9c0-5.9-1.5-10.8-4.6-14.6c-2.4-2.9-6-4.3-10.8-4.3
		c-3.6,0-7,1-10.1,3c-3.1,2-5.9,5.1-8.4,9.2c-1.3-4.3-3.1-7.4-5.5-9.3c-2.4-1.9-5.4-2.9-9-2.9c-3.4,0-6.6,0.8-9.4,2.5
		c-2.9,1.7-5.7,4.6-8.6,8.7c-0.3-3.6-0.8-7.3-1.6-11.2l-15.1,1v3.9c2.9,0.3,4.9,0.9,5.9,1.8c1,0.9,1.5,2.4,1.5,4.3v34.6
		c0,1.2-0.4,2.1-1.2,2.9c-0.8,0.8-2,1.1-3.5,1.1h-4v4.2h26.6v-4.2h-2.7c-2.1,0-3.7-0.4-4.7-1.2c-0.7-0.6-1.1-1.7-1.1-3.3V67
		c0-5.1,1.5-9.6,4.6-13.4c2.1-2.7,5.2-4.1,9.2-4.1c3.1,0,5.5,1.2,7.3,3.5c1.8,2.3,2.7,6.1,2.7,11.2v24.4c0,1.2-0.5,2.1-1.4,2.9
		c-0.9,0.8-2.4,1.1-4.3,1.1h-3v4.2h26.9v-4.2h-3.6c-1.7,0-3-0.4-3.8-1.1c-0.8-0.7-1.2-1.9-1.2-3.4V65.4c0-2.3,0.8-5.2,2.4-8.5
		c1.1-2.3,2.6-4.1,4.5-5.4c1.9-1.3,4-1.9,6.4-1.9c3.1,0,5.6,1.1,7.5,3.2c1.9,2.1,2.9,5.2,2.9,9.1v26.3c0,1.5-0.5,2.6-1.4,3.4
		c-0.9,0.8-2.5,1.1-4.7,1.1h-2.6v4.2h26.5v-4.2h-2.6C283.9,92.6,282.3,92.2,281.3,91.3"/>
	<path id="XMLID_3_" fill="#432713" d="M385.1,51.1c2.7-3.5,6-5.2,9.9-5.2c3.5,0,6.5,1.4,9.1,4.3c2.6,2.9,3.9,6.4,3.9,10.5
		c0,2.2-0.4,3.8-1.1,4.7c-0.8,0.9-1.8,1.4-3.2,1.4h-22.9C381,59.8,382.4,54.6,385.1,51.1 M415.4,80.9c-4.5,8.4-10.4,12.6-17.7,12.6
		c-5,0-9.1-1.9-12.3-5.6c-2.8-3.3-4.3-9-4.5-17h37.8c-0.1-5.3-0.8-9.6-2.1-13.1c-1.9-4.9-4.7-8.7-8.4-11.3
		c-3.7-2.6-8.1-3.9-13.2-3.9c-6.9,0-12.8,2.6-17.5,7.9c-4.7,5.3-7.1,12.2-7.1,20.8c0,2.9,0.3,5.6,1,8.1c-0.3,5.3-1.5,7-3.3,9.4
		c-1.8,2.4-4,3.6-6.5,3.6c-2.1,0-3.9-0.8-5.3-2.3c-1.4-1.6-2.1-3.8-2.1-6.7V49.2h17.1V44h-17.1V22.5h-3.8c-0.3,7.5-2,13.4-5.3,17.5
		c-2.2,2.8-5.4,4.5-9.5,5.2v3.9h9.2v35.5c0,3.9,1.2,7,3.7,9.4c2.5,2.4,5.9,3.6,10.2,3.6c4.7,0,8.6-1.7,11.5-5.1
		c1.9-2.2,3.1-3.9,3.7-6.7c1,1.8,2.2,3.4,3.6,4.9c4.8,5.1,10.8,7.7,17.8,7.7c10.4,0,18.3-5.3,23.7-16L415.4,80.9z"/>
</g>
<text id="XMLID_699_" transform="matrix(1 0 0 1 6.9956 98.4526)" opacity="0.88" font-family="'CenturySchoolbook'" font-size="115px" letter-spacing="-11">buy</text>
</svg>
